With: Mira Sorvino, Dermot Mulroney and John Billingsley

Alex (Dermot Mulroney) en Claire (Mira Sorvino) Becker zijn een getrouwd Amerikaans stel dat rouwt om het verlies van hun dochter. Ze besluiten in Cambodja de strijd aan te gaan tegen de mensenhandel. Ze groeien uit tot de enige hoop en vertrouwenspersonen van een jong meisje dat ze proberen te redden uit de klauwen van een sadistische en onmenselijke mensenhandelaar die meisjes levert aan bordelen in de achterbuurten.

A couple grieving the loss of their own daughter set out to rescue young girls sold into the sex slave trade. 
 
http://www.imdb.com/title/tt1772408	

------------------------ Dutch Friends ------------------------
---------------------------------------------------------------
- Bezoek ook eens mijn vrienden op:  http://www.Film-Test.nl --
----- voor mijn Nederlandse Sync. ondertitels ---- en meer ----
------- http://www.Film-Test.nl ---- Over Films en meer -------
---------------------------------------------------------------

General:

Complete name                    : Trade of InnocentsTrade of Innocents.avi
Format                           : AVI
Format/Info                      : Audio Video Interleave
File size                        : 1.54 GiB
Duration                         : 1h 30mn
Overall bit rate                 : 2 439 Kbps

Video:

Format                           : MPEG-4 Visual
Format profile                   : Simple@L3
Format settings, BVOP            : No
Format settings, QPel            : No
Format settings, GMC             : No warppoints
Format settings, Matrix          : Default (H.263)
Codec ID                         : XVID
Codec ID/Hint                    : XviD
Duration                         : 1h 30mn
Bit rate                         : 1 980 Kbps
Width                            : 720 pixels
Height                           : 304 pixels
Display aspect ratio             : 2.35:1
Frame rate                       : 23.976 fps
Color space                      : YUV
Chroma subsampling               : 4:2:0
Bit depth                        : 8 bits
Scan type                        : Progressive
Compression mode                 : Lossy
Bits/(Pixel*Frame)               : 0.377
Stream size                      : 1.25 GiB (81%)
Writing library                  : XviD 1.1.2 (UTC 2006-11-01)

Audio:

Format                           : AC-3
Format/Info                      : Audio Coding 3
Mode extension                   : CM (complete main)
Codec ID                         : 2000
Duration                         : 1h 30mn
Bit rate mode                    : Constant
Bit rate                         : 448 Kbps
Channel(s)                       : 6 channels
Channel positions                : Front: L C R, Side: L R, LFE
Sampling rate                    : 48.0 KHz
Bit depth                        : 16 bits
Compression mode                 : Lossy
Stream size                      : 290 MiB (18%)
Alignment                        : Aligned on interleaves
Interleave, duration             : 32 ms (0.77 video frame)
Interleave, preload duration     : 64 ms